<?xml version="1.0" encoding="utf-8"?>
<!DOCTYPE svg PUBLIC "-//W3C//DTD SVG 1.1//EN" "http://www.w3.org/Graphics/SVG/1.1/DTD/svg11.dtd">
<svg version="1.1" id="icon-twitter-monday" xmlns="http://www.w3.org/2000/svg" xmlns:xlink="http://www.w3.org/1999/xlink" x="0px"
	 y="0px" width="40px" height="40px" viewBox="0 0 40 40" enable-background="new 0 0 40 40" xml:space="preserve">
<g>
	<path fill="#D85349" d="M29.726,14.983c0.018,0.218,0.018,0.438,0.018,0.658C29.743,22.312,24.69,30,15.457,30
		c-2.841,0-5.484-0.824-7.707-2.265c0.404,0.046,0.794,0.063,1.212,0.063c2.347,0,4.506-0.798,6.232-2.155
		c-2.206-0.043-4.055-1.5-4.694-3.5c0.31,0.046,0.623,0.079,0.95,0.079c0.448,0,0.901-0.064,1.32-0.174
		c-2.301-0.469-4.026-2.502-4.026-4.955c0-0.014,0-0.044,0-0.063c0.668,0.375,1.446,0.61,2.27,0.642
		c-1.353-0.908-2.238-2.453-2.238-4.205c0-0.938,0.249-1.798,0.684-2.547c2.471,3.063,6.186,5.062,10.353,5.281
		c-0.078-0.373-0.122-0.765-0.122-1.156c0-2.781,2.239-5.046,5.02-5.046c1.445,0,2.752,0.609,3.667,1.592
		c1.138-0.218,2.226-0.639,3.189-1.219c-0.371,1.173-1.168,2.157-2.208,2.782c1.012-0.108,1.988-0.392,2.892-0.781
		C31.564,13.373,30.71,14.265,29.726,14.983z"/>
</g>
</svg>
