<?xml version="1.0" encoding="utf-8"?>
<!DOCTYPE svg PUBLIC "-//W3C//DTD SVG 1.1//EN" "http://www.w3.org/Graphics/SVG/1.1/DTD/svg11.dtd">
<svg version="1.1" id="icon-slideshow-monday" xmlns="http://www.w3.org/2000/svg" xmlns:xlink="http://www.w3.org/1999/xlink"
	 x="0px" y="0px" width="40px" height="40px" viewBox="0 0 40 40" enable-background="new 0 0 40 40" xml:space="preserve">
<circle fill="#D85549" cx="14" cy="36" r="2"/>
<circle fill="#D85549" cx="20" cy="36" r="2"/>
<circle fill="#D85549" cx="26" cy="36" r="2"/>
<path fill="#D85549" d="M1,2v30h38V2H1z M31.012,17.582L37,23.57V30H3v-2.57l5.363-5.363l0.481-3.285L3,24.6V4h34v16.74
	l-5.988-5.989"/>
<path fill="#D85549" stroke="#575656" stroke-width="2" stroke-miterlimit="10" d="M6.25,3.25"/>
<path fill="#D85549" stroke="#575656" stroke-width="2" stroke-miterlimit="10" d="M6.25,31"/>
<path fill="#D85549" d="M7,7v19.5h25V7H7z M9,24V9h21v15H9z"/>
<g>
	<rect x="13" y="14" fill="#D85549" width="13" height="2"/>
	<rect x="13" y="18" fill="#D85549" width="9" height="2"/>
</g>
</svg>
