<?xml version="1.0" encoding="utf-8"?>
<!-- Generator: Adobe Illustrator 16.0.4, SVG Export Plug-In . SVG Version: 6.00 Build 0)  -->
<!DOCTYPE svg PUBLIC "-//W3C//DTD SVG 1.1//EN" "http://www.w3.org/Graphics/SVG/1.1/DTD/svg11.dtd">
<svg version="1.1" id="Ebene_1" xmlns="http://www.w3.org/2000/svg" xmlns:xlink="http://www.w3.org/1999/xlink" x="0px" y="0px"
	 width="595.28px" height="841.89px" viewBox="0 0 595.28 841.89" enable-background="new 0 0 595.28 841.89" xml:space="preserve">
<g opacity="0.03">
	<polygon opacity="0.4" fill="#FFFFFF" points="88.059,153.239 41.062,112.939 89.673,64.33 131.826,64.33 131.826,114.016 	"/>
	<polygon opacity="0.6" fill="#FFFFFF" points="89.673,64.33 96.31,-1.142 0,-1.073 0,113 41.062,112.939 	"/>
	<polygon opacity="0.1" fill="#FFFFFF" points="89.673,64.33 96.31,-1.142 320.152,-0.423 131.826,64.33 	"/>
	<polygon opacity="0.2" fill="#FFFFFF" points="88.059,153.239 72.872,189.233 0,189.333 0,113 41.302,113.18 	"/>
	<polygon opacity="0.4" fill="#FFFFFF" points="237.812,27.938 185.637,81.729 131.826,114.016 131.859,64.344 	"/>
	<polygon opacity="0.8" fill="#FFFFFF" points="185.637,81.729 247.701,136.258 131.826,114.016 131.826,64.33 	"/>
	<polygon opacity="0.2" fill="#FFFFFF" points="131.826,114.016 247.701,136.258 102.168,218.292 72.632,188.994 88.059,153.239 	
		"/>
	<polygon opacity="0.6" fill="#FFFFFF" points="185.637,81.729 271.561,91.254 320.152,-0.423 237.812,27.938 	"/>
	<polygon opacity="0.3" fill="#FFFFFF" points="247.701,136.258 425.28,203.463 271.019,260.026 102.168,218.292 	"/>
	<polygon opacity="0.6" fill="#FFFFFF" points="313.352,161.371 383.665,88.904 308.329,21.818 247.701,136.258 	"/>
	<polygon opacity="0.7" fill="#FFFFFF" points="383.665,88.904 422.769,95.72 425.28,203.463 313.352,161.371 	"/>
	<polygon opacity="0.2" fill="#FFFFFF" points="271.98,91.314 185.516,81.703 237.812,27.938 	"/>
	<polygon opacity="0.4" fill="#FFFFFF" points="247.701,136.258 185.637,239.1 153.709,189.711 	"/>
	<polygon opacity="0.2" fill="#FFFFFF" points="88.059,153.239 0,189.333 72.872,189.233 	"/>
	<polygon opacity="0.2" fill="#FFFFFF" points="313.352,161.371 423.128,150.608 525.167,114.333 383.665,88.904 	"/>
	<polygon opacity="0.6" fill="#FFFFFF" points="425.28,203.463 595.28,260.5 595.28,127.333 525.167,114.333 424,150.333 	"/>
	<path fill="#FFFFFF" d="M425.334,292.667"/>
	<path fill="#FFFFFF" d="M595.28,260.5"/>
	<polygon opacity="0.7" fill="#FFFFFF" points="425.334,292.667 595.28,260.5 595.28,381.667 496.667,360 	"/>
	<polygon fill="#FFFFFF" points="496.667,360 595.28,260.5 595.28,381.667 	"/>
	<polygon opacity="0.1" fill="#FFFFFF" points="525.167,114.333 595.28,260.5 595.28,127.333 	"/>
	<path fill="#FFFFFF" d="M185.334,237.999"/>
	<polygon fill="#FFFFFF" points="0,189.333 0,320 72.872,189.233 	"/>
	<polyline opacity="0.2" fill="#FFFFFF" points="425.28,203.463 425.334,292.667 271.019,260.026 247.701,136.258 	"/>
	<path fill="#FFFFFF" d="M185.637,239.1"/>
	<path fill="#FFFFFF" d="M271.335,258.999"/>
	<path fill="#FFFFFF" d="M271.335,258.999"/>
	<polygon opacity="0.8" fill="#FFFFFF" points="271.019,260.026 425.28,203.463 425.334,292.667 319.333,271.75 	"/>
	<polygon opacity="0.2" fill="#FFFFFF" points="271.019,260.026 313.352,161.371 425.28,203.463 	"/>
	<polyline fill="#FFFFFF" points="496.667,360 471,417.334 392.667,357.334 424.928,293.473 425.334,292.667 	"/>
	<polygon fill="#FFFFFF" points="319.333,271.75 282.334,330 425.334,292.667 	"/>
	<polygon opacity="0.3" fill="#FFFFFF" points="392.667,357.334 282.334,330 425.334,292.667 	"/>
	<polygon opacity="0.6" fill="#FFFFFF" points="72.872,189.233 27,272 102.168,218.292 	"/>
	<polygon opacity="0.5" fill="#FFFFFF" points="282.334,330 185.637,239.1 319.333,271.75 	"/>
	<polyline fill="#FFFFFF" points="102.168,218.292 128,300.668 185.637,239.1 	"/>
	<polygon fill="#FFFFFF" points="128,300.668 282.334,330 228,434.5 143.667,368.669 	"/>
	<polygon opacity="0.1" fill="#FFFFFF" points="128,300.668 27,271.335 0,320 	"/>
	<polygon opacity="0.1" fill="#FFFFFF" points="595.279,0 534.667,82.003 424.334,0 	"/>
	<polygon opacity="0.6" fill="#FFFFFF" points="525.167,114.333 524.068,114.724 478.592,130.892 424,150.333 508.668,231.003 
		595.28,260.5 	"/>
	<polygon opacity="0.4" fill="#FFFFFF" points="383.665,88.904 424.375,0 453,21.5 	"/>
	<polygon opacity="0.4" fill="#FFFFFF" points="308.329,21.818 424.375,0 320.031,0 	"/>
	<polygon fill="#FFFFFF" points="534.667,82.003 551.5,0 595.279,0 	"/>
	<polygon opacity="0.7" fill="#FFFFFF" points="425,251 595.28,260.5 425.28,203.463 	"/>
	<polygon fill="#FFFFFF" points="247.75,136.25 383.665,88.904 308.329,21.818 	"/>
	<polygon fill="#FFFFFF" points="0,86.002 95.667,0 0,0 	"/>
	<polygon fill="#FFFFFF" points="131.826,64.33 201.75,0 319.25,0 	"/>
	<polygon opacity="0.7" fill="#FFFFFF" points="0,320 128,300.668 145.167,367.837 0,484.358 	"/>
	<polygon fill="#FFFFFF" points="508.668,231.003 548.75,163.5 595.28,260.5 	"/>
	<polygon opacity="0.2" fill="#FFFFFF" points="453,21.5 551.5,0 534.667,82.003 	"/>
	<polygon opacity="0.4" fill="#FFFFFF" points="507.221,591.619 554.217,631.919 505.607,680.528 463.454,680.528 463.454,630.843 	
		"/>
	<polygon opacity="0.6" fill="#FFFFFF" points="505.607,680.528 498.971,746 595,843.25 595.28,658.856 554.217,631.919 	"/>
	<polygon opacity="0.8" fill="#FFFFFF" points="505.607,680.528 498.971,746 374.25,774 275.127,745.282 463.454,680.528 	"/>
	<polygon opacity="0.2" fill="#FFFFFF" points="507.221,591.619 522.408,555.626 595.279,555.525 595.28,658.856 553.978,631.679 	
		"/>
	<path opacity="0.4" fill="#FFFFFF" d="M359.418,716.224c3.229-5.381,50.225-53.094,50.225-53.094l53.812-32.287v49.686
		L359.418,716.224z"/>
	<polygon opacity="0.8" fill="#FFFFFF" points="409.643,663.13 347.578,608.601 463.454,630.843 463.454,680.528 	"/>
	<polygon opacity="0.2" fill="#FFFFFF" points="463.454,630.843 347.578,608.601 492.5,526.5 522.647,555.864 507.221,591.619 	"/>
	<polygon opacity="0.6" fill="#FFFFFF" points="409.643,663.13 323.719,653.604 275.127,745.282 359.418,716.224 	"/>
	<polyline opacity="0.3" fill="#FFFFFF" points="324.26,484.833 493.111,526.566 347.578,608.601 170,541.396 324.26,484.833 	"/>
	<polygon opacity="0.6" fill="#FFFFFF" points="281.928,583.487 211.615,655.954 286.95,723.04 347.578,608.601 	"/>
	<polygon opacity="0.7" fill="#FFFFFF" points="211.615,655.954 172.511,649.138 170,541.396 281.928,583.487 	"/>
	<polygon opacity="0.4" fill="#FFFFFF" points="0,617.524 211.615,655.954 286.95,723.04 234.75,821.375 170.905,744.858 	"/>
	<polygon opacity="0.2" fill="#FFFFFF" points="323.299,653.544 409.643,663.13 359.458,716.084 	"/>
	<polygon opacity="0.4" fill="#FFFFFF" points="347.578,608.601 409.643,505.759 441.57,555.147 	"/>
	<polygon opacity="0.2" fill="#FFFFFF" points="507.221,591.619 593.799,555.267 522.408,555.626 	"/>
	<polygon opacity="0.2" fill="#FFFFFF" points="281.928,583.487 172.152,594.25 70.113,630.524 211.615,655.954 	"/>
	<polyline opacity="0.6" fill="#FFFFFF" points="0,484.358 0,617.524 70.113,630.524 171.28,594.524 170,541.396 0,484.358 	"/>
	<polygon fill="#FFFFFF" points="211.615,655.954 0,618.024 111.03,700.983 	"/>
	<polyline opacity="0.5" fill="#FFFFFF" points="0,484.358 0,617.524 70.113,630.524 0,484.358 	"/>
	<path fill="#FFFFFF" d="M409.945,506.859"/>
	<polyline fill="#FFFFFF" points="595.279,424.858 522.408,555.626 595.279,555.525 595.279,424.858 	"/>
	<line opacity="0.6" fill="#FFFFFF" x1="324.26" y1="484.833" x2="347.578" y2="608.601"/>
	<path opacity="0.6" fill="#FFFFFF" d="M170,541.396"/>
	<path fill="#FFFFFF" d="M409.643,505.759"/>
	<polyline opacity="0.8" fill="#FFFFFF" points="324.26,484.833 170,541.396 228,434.5 	"/>
	<polyline fill="#FFFFFF" points="324.26,484.833 302.779,591.858 170,541.396 324.26,484.833 	"/>
	<polygon opacity="0.4" fill="#FFFFFF" points="522.408,555.626 595.279,424.858 471,417.334 492.5,526.5 	"/>
	<polyline opacity="0.5" fill="#FFFFFF" points="282.334,330 392.667,357.334 409.643,505.759 324.26,484.833 	"/>
	<polygon opacity="0.6" fill="#FFFFFF" points="0,744.858 60.613,662.854 170.946,744.858 	"/>
	<polyline opacity="0.6" fill="#FFFFFF" points="0,484.358 70.113,630.524 71.211,630.134 116.688,613.967 171.28,594.524 
		86.612,513.855 0,484.358 	"/>
	<polygon opacity="0.4" fill="#FFFFFF" points="211.615,655.954 170.905,744.858 141.863,723.233 	"/>
	<polygon fill="#FFFFFF" points="286.95,723.04 170.625,745 275.248,744.858 	"/>
	<polygon fill="#FFFFFF" points="60.613,662.854 43.78,744.858 0,744.858 	"/>
	<polyline opacity="0.7" fill="#FFFFFF" points="0,484.358 170,541.396 228,434.5 0,484.358 	"/>
	<polygon fill="#FFFFFF" points="347.529,608.608 211.615,655.954 286.95,723.04 	"/>
	<polygon fill="#FFFFFF" points="595.28,658.856 498.971,746 595.279,744.858 	"/>
	<polygon fill="#FFFFFF" points="463.454,680.528 323.25,828 275.248,744.858 	"/>
	<polygon fill="#FFFFFF" points="0,484.358 46.53,581.358 86.612,513.855 0,484.358 143.667,368.669 0,342.75 	"/>
	<polygon opacity="0.2" fill="#FFFFFF" points="111.03,700.983 43.78,744.858 60.613,662.854 	"/>
	<polygon fill="#FFFFFF" points="298.333,388.667 392.667,357.334 392.667,357.334 324.5,485.167 	"/>
	<polygon fill="#FFFFFF" points="534.667,82.003 525.167,114.333 595.28,127.333 595.279,0 	"/>
	<path fill="#FFFFFF" d="M471,417.334"/>
	<polygon fill="#FFFFFF" points="496.667,360 595.28,381.667 595.279,424.858 471,417.334 	"/>
	<polygon fill="#FFFFFF" points="308.329,21.818 383.665,88.904 424.375,0 	"/>
	<polygon fill="#FFFFFF" points="185.637,239.1 128,300.668 282.334,330 	"/>
</g>
</svg>
